Simulation
nRows=31
nColumns=15
endheader
time  TH_x TH_y TH_z SC_y  SC_z  SC_x  AC_y  AC_z  AC_x  GH_y  GH_z  GH_yy  EL_x  PS_y
0.0  0.000000  0.000000  0.000000  -23.12337638698344  3.6758127344347424  -5.157701235243936  62.4347033301578  7.754770031055599  9.835079477135109  -115.86886439245211  6.607431376666038  148.3450294433216  20.17408674048585  120.000000
0.04016479400749064  0.000000  0.000000  0.000000  -23.13094302559687  3.700074648665918  -5.109617107768712  62.40595903544406  7.80678785079217  9.80401955505432  -114.84704323226732  6.5740175226723725  147.2149839046301  20.08700676546695  120.000000
0.08032958801498127  0.000000  0.000000  0.000000  -23.15605607656999  3.770648565322997  -4.973626183228205  62.314026156236096  7.957086729021405  9.708685802914141  -111.75260764303263  6.496057391874705  143.79248996588592  19.83579688159808  120.000000
0.12049438202247191  0.000000  0.000000  0.000000  -23.2074924474938  3.8835723523839003  -4.769132541953847  62.14604097630727  8.188896307548022  9.549953825891516  -106.61480746008887  6.432994817972862  138.10134730666047  19.44738209562209  120.000000
0.16065917602996255  0.000000  0.000000  0.000000  -23.293979361315685  4.033675456849546  -4.517215370184722  61.89290129885066  8.481821351368122  9.333864381537621  -99.6864286359751  6.463163900352417  130.39424312885626  18.953566109231915  120.000000
0.20082397003745317  0.000000  0.000000  0.000000  -23.421351613956244  4.216693532394929  -4.2326416332525705  61.5535009789724  8.821734183182025  9.068899463104483  -91.5233687738333  6.663580369802736  121.23448826441933  18.383965800692557  120.000000
0.24098876404494382  0.000000  0.000000  0.000000  -23.597089059349038  4.431527030299031  -3.919698502880191  61.129933019681914  9.203742061930717  8.768613175640196  -82.92892831579269  7.094407293126318  111.44006605542754  17.7638876092511  120.000000
0.28115355805243447  0.000000  0.000000  0.000000  -23.830374156346263  4.679683605340234  -3.574638903021012  60.62500224380102  9.62875487895261  8.451540309211913  -74.7317032869598  7.789156661475919  101.86138236143874  17.11339436117778  120.000000
0.3213183520599251  0.000000  0.000000  0.000000  -24.129712424797756  4.961887629118885  -3.1910193373427926  60.04764074464199  10.09767722739277  8.1361262645672  -67.52836394634096  8.750179154480843  93.12331576265483  16.44928059891948  120.000000
0.3614831460674157  0.000000  0.000000  0.000000  -24.50003655945204  5.278533362977873  -2.764507937359338  59.417458367896316  10.609273804224747  7.836142748668354  -61.5569187172558  9.954229561822128  85.49682121449646  15.786071243123947  120.000000
0.40164794007490634  0.000000  0.000000  0.000000  -24.94413085775549  5.633640261074775  -2.2910611245593535  58.75647474051943  11.159775667817021  7.563824570861857  -56.77737542230196  11.369727151819077  78.97770282483621  15.136925005436071  120.000000
0.441812734082397  0.000000  0.000000  0.000000  -25.463391276603602  6.028972826854643  -1.764430178578256  58.08240885908012  11.743687393067958  7.331483622492421  -53.02402736209372  12.969452695557868  73.43718505533725  14.510977607233748  120.000000
0.48197752808988764  0.000000  0.000000  0.000000  -26.056636636597833  6.462441906563173  -1.178341730342848  57.41054720367774  12.353439439141079  7.151220559220367  -50.10202739705685  14.730317667648558  68.71693022740465  13.914293654791491  120.000000
0.5221423220973783  0.000000  0.000000  0.000000  -26.719665002593484  6.929528998574566  -0.528131221024236  56.7555701721221  12.978606294683086  7.034209444490998  -47.83009390965536  16.631142176957194  64.67078952089759  13.351325288380876  120.000000
0.5623071161048689  0.000000  0.000000  0.000000  -27.445459435622162  7.423215992795097  0.1881161930744313  56.13168347159617  13.606897945920833  6.989222857727426  -46.05289721180948  18.651553988725652  61.17535969951852  12.824399775786164  120.000000
0.6024719101123596  0.000000  0.000000  0.000000  -28.22485625590896  7.935564360816544  0.9698996817604478  55.55217828865447  14.224807621761641  7.022240843636565  -44.64237588203353  20.771038012272964  58.12987544771842  12.3339607913133  120.000000
0.6426367041198502  0.000000  0.000000  0.000000  -29.046875079836234  8.458053352025756  1.815076793960479  55.02904245849092  14.819156949284002  7.136006030823375  -43.49405886185065  22.968450017048326  55.451268657648775  11.87847544630256  120.000000
0.6828014981273408  0.000000  0.000000  0.000000  -29.898735759511244  8.982540351992142  2.7198906745876537  54.572821406998116  15.37892036891065  7.330515770101943  -42.523192193393626  25.221528307033125  53.06947300418641  11.454468342618368  120.000000
0.7229662921348314  0.000000  0.000000  0.000000  -30.7667615273323  9.501681219656941  3.6795677265947107  54.19162381238525  15.896321084768285  7.603338908772064  -41.662530559706916  27.507491898179353  50.92495557702993  11.056594299513181  120.000000
0.7631310861423221  0.000000  0.000000  0.000000  -31.637688035711967  10.008918103548321  4.689064175847406  53.88973664719781  16.367106312258876  7.950041885780915  -40.86141207984067  29.80436542505584  48.967944791224966  10.67765523232363  120.000000
0.8032958801498127  0.000000  0.000000  0.000000  -32.499571370982416  10.498608674936564  5.743092885162923  53.66706364885203  16.7902988942844  8.36482906671226  -40.08410208296313  32.0918970618984  47.157886640067005  10.309289162598095  120.000000
0.8434606741573034  0.000000  0.000000  0.000000  -33.3421241711038  10.965844911680207  6.835806007959211  53.51923127278334  17.167413515260655  8.840985702140594  -39.30787289412837  34.3521248599191  45.46303036200395  9.94338078476713  120.000000
0.883625468164794  0.000000  0.000000  0.000000  -34.1567889900721  11.406362568003793  7.9601573501438585  53.4381766152875  17.50121851152833  9.371095883503916  -38.52085326276775  36.56961508022088  43.86018510533597  9.573674515835732  120.000000
0.9237902621722847  0.000000  0.000000  0.000000  -34.93658310080293  11.816618133795833  9.107085994484725  53.41303236999036  17.79451656444567  9.946844718849142  -37.72011766221367  38.73135388079316  42.33451243411608  9.197437651124522  120.000000
0.9639550561797753  0.000000  0.000000  0.000000  -35.67598081224736  12.194015592520767  10.264819855058775  53.43125086570931  18.049136971936868  10.558578712991004  -36.90964945110894  40.82639057291633  40.879006391481575  8.816472224508619  120.000000
1.004119850187266  0.000000  0.000000  0.000000  -36.370822788038424  12.537211813549465  11.418573837916838  53.479852355509536  18.265512242726114  11.194752746061528  -36.09843509888239  42.84511571335675  39.49341002442478  8.437203481086396  120.000000
1.0442846441947566  0.000000  0.000000  0.000000  -37.018347578034835  12.846348069658513  12.55086070168012  53.54660450207869  18.442784251031657  11.841593665878545  -35.298423399176464  44.778501904092884  38.182521009058625  8.06970988855595  120.000000
1.0844494382022472  0.000000  0.000000  0.000000  -37.61726323573879  13.12316730749338  13.642402610040076  53.62102095765784  18.579431707857978  12.482976123484717  -34.52279823084189  46.617403979073785  36.95422707593112  7.72621174540392  120.000000
1.1246142322097379  0.000000  0.000000  0.000000  -38.16766837698245  13.370887570997702  14.673321807095919  53.6951626106301  18.674000438827804  13.100636092115023  -33.78444219472111  48.3519683246763  35.81752523866658  7.419279887208413  120.000000
1.1647790262172284  0.000000  0.000000  0.000000  -38.670681841404324  13.59360338880989  15.624550243837279  53.76403382694342  18.72567037646529  13.675084451095076  -33.0944623047171  49.971356171568736  34.78054160097613  7.160294066628147  120.000000
1.2049438202247191  0.000000  0.000000  0.000000  -39.12788353807861  13.795580693587388  16.479290732940946  53.82548582700099  18.73466625645546  14.187135620720268  -32.46098100261438  51.46419154136964  33.84892249450833  6.958192833822359  120.000000
